#define WiCon_Icon_width 118
#define WiCon_Icon_height 35
static unsigned char WiCon_Icon_bits[] = {
   0x00, 0x00, 0x00, 0x00, 0x00, 0x00, 0x00, 0x00, 0x00, 0x00, 0x00, 0x00,
   0x00, 0x00, 0x00, 0x00, 0x00, 0x00, 0x00, 0x00, 0x00, 0x00, 0x00, 0x00,
   0x00, 0x00, 0x00, 0x00, 0x00, 0x00, 0x00, 0x00, 0x00, 0xfc, 0x01, 0x00,
   0x00, 0x00, 0x00, 0x00, 0x00, 0x00, 0x00, 0x00, 0x00, 0x00, 0x00, 0x00,
   0xff, 0x07, 0x00, 0x00, 0x00, 0x00, 0x00, 0x00, 0x00, 0x00, 0x00, 0x00,
   0x00, 0x00, 0x80, 0x03, 0x0e, 0x00, 0x00, 0x00, 0x00, 0x00, 0x00, 0x00,
   0x00, 0x00, 0x00, 0x00, 0x00, 0xc0, 0x01, 0x1c, 0x00, 0x00, 0x00, 0x00,
   0x00, 0x00, 0x00, 0x00, 0x00, 0x00, 0x00, 0x00, 0x80, 0xf8, 0x11, 0x00,
   0x00, 0x00, 0x00, 0x00, 0x00, 0x00, 0x00, 0x00, 0x00, 0x00, 0x00, 0x00,
   0xfe, 0x03, 0x00, 0x00, 0x00, 0x00, 0x00, 0x00, 0x00, 0x00, 0x00, 0x00,
   0x00, 0x00, 0x00, 0x04, 0x03, 0x00, 0x00, 0x00, 0x00, 0x00, 0x00, 0x00,
   0x00, 0x00, 0x00, 0x00, 0x00, 0x00, 0x30, 0x00, 0x00, 0x00, 0x00, 0x00,
   0x00, 0x00, 0x00, 0x00, 0x07, 0x00, 0x00, 0x00, 0x40, 0xf8, 0x00, 0x3f,
   0x00, 0x00, 0x00, 0x00, 0x00, 0x00, 0x00, 0x0f, 0x00, 0x1e, 0x78, 0xe0,
   0x79, 0xc0, 0x3f, 0x00, 0x00, 0x00, 0x00, 0x80, 0x87, 0x8f, 0x0f, 0x00,
   0x3e, 0xf8, 0xe0, 0x71, 0xf0, 0x3f, 0x00, 0x00, 0x00, 0x00, 0x80, 0xc7,
   0x0f, 0x87, 0x07, 0x3e, 0xfc, 0xf0, 0x21, 0xf0, 0x3f, 0x00, 0x00, 0x00,
   0x00, 0x80, 0xc7, 0x07, 0x80, 0x07, 0x3c, 0xfc, 0xf0, 0x00, 0xf8, 0x21,
   0x00, 0x00, 0x00, 0x00, 0x80, 0xe7, 0x03, 0x80, 0x07, 0x3c, 0xfc, 0xf0,
   0x00, 0x7c, 0x00, 0xc0, 0x01, 0x00, 0x00, 0x80, 0xf7, 0x01, 0x80, 0x07,
   0x7c, 0xfe, 0xf1, 0x78, 0x7c, 0x00, 0xf8, 0x07, 0xef, 0x07, 0x80, 0xff,
   0x00, 0xc7, 0x1f, 0x78, 0xfe, 0xf9, 0x78, 0x3c, 0x00, 0xfc, 0x1f, 0xff,
   0x07, 0x80, 0x7f, 0x00, 0xc7, 0x1f, 0x78, 0xfe, 0x79, 0x78, 0x3c, 0x00,
   0xfe, 0x1f, 0xff, 0x0f, 0x80, 0x7f, 0x00, 0xc7, 0x1f, 0x78, 0xcf, 0x7b,
   0x78, 0x3c, 0x00, 0x1e, 0x3e, 0x0f, 0x0f, 0x80, 0xff, 0x00, 0x87, 0x07,
   0xf0, 0xcf, 0x7f, 0x78, 0x7c, 0x00, 0x1e, 0x3c, 0x0f, 0x0f, 0x80, 0xff,
   0x01, 0x87, 0x07, 0xf0, 0x8f, 0x3f, 0x78, 0x7c, 0x00, 0x1e, 0x3c, 0x0f,
   0x0f, 0x80, 0xf7, 0x01, 0x87, 0x07, 0xf0, 0x87, 0x3f, 0x78, 0xf8, 0x20,
   0x1e, 0x3c, 0x0f, 0x0f, 0x80, 0xe7, 0x03, 0x87, 0x07, 0xf0, 0x87, 0x3f,
   0x78, 0xf8, 0x3f, 0x3e, 0x3e, 0x0f, 0x0f, 0x80, 0xc7, 0x07, 0x87, 0x07,
   0xe0, 0x07, 0x1f, 0x78, 0xf0, 0x3f, 0xfe, 0x1f, 0x0f, 0x0f, 0x80, 0xc7,
   0x0f, 0x87, 0x07, 0xe0, 0x03, 0x1f, 0x78, 0xe0, 0x3f, 0xfc, 0x0f, 0x0f,
   0x0f, 0x80, 0x87, 0x1f, 0x87, 0x07, 0xe0, 0x03, 0x1f, 0x78, 0x80, 0x3f,
   0xf0, 0x07, 0x0f, 0x0f, 0x80, 0x07, 0x3f, 0x87, 0x07, 0x00, 0x00, 0x00,
   0x00, 0x00, 0x00, 0x00, 0x00, 0x00, 0x00, 0x00, 0x00, 0x00, 0x00, 0x00,
   0x00, 0x00, 0x00, 0x00, 0x00, 0x00, 0x00, 0x00, 0x00, 0x00, 0x00, 0x00,
   0x00, 0x00, 0x00, 0x00, 0x00, 0x00, 0x00, 0x00, 0x00, 0x00, 0x00, 0x00,
   0x00, 0x00, 0x00, 0x00, 0x00, 0x00, 0x00, 0x00, 0x00, 0x00, 0x00, 0x00,
   0x00, 0x00, 0x00, 0x00, 0x00, 0x00, 0x00, 0x00, 0x00, 0x00, 0x00, 0x00,
   0x00, 0x00, 0x00, 0x00, 0x00, 0x00, 0x00, 0x00, 0x00, 0x00, 0x00, 0x00,
   0x00, 0x00, 0x00, 0x00, 0x00, 0x00, 0x00, 0x00, 0x00, 0x00, 0x00, 0x00,
   0x00, 0x00, 0x00, 0x00, 0x00, 0x00, 0x00, 0x00, 0x00, 0x00, 0x00, 0x00,
   0x00, 0x00, 0x00, 0x00, 0x00, 0x00, 0x00, 0x00, 0x00, 0x00, 0x00, 0x00,
   0x00, 0x00, 0x00, 0x00, 0x00, 0x00, 0x00, 0x00, 0x00 };
