#define wifi_icon_width 32
#define wifi_icon_height 32
static unsigned char wifi_icon_bits[] = {
   0x00, 0x00, 0x00, 0x00, 0x00, 0x00, 0x00, 0x00, 0x00, 0x00, 0x00, 0x00,
   0x00, 0x00, 0x00, 0x00, 0x00, 0x00, 0x00, 0x00, 0x60, 0x00, 0x00, 0x06,
   0x40, 0x00, 0x00, 0x04, 0x00, 0x00, 0x00, 0x00, 0x00, 0x00, 0x00, 0x00,
   0x04, 0x06, 0x60, 0x20, 0x08, 0x04, 0x40, 0x00, 0x02, 0x00, 0x00, 0x40,
   0x04, 0x02, 0x80, 0x00, 0x01, 0xc0, 0x03, 0x80, 0x00, 0x00, 0x00, 0x41,
   0x41, 0x10, 0x08, 0x82, 0x80, 0x00, 0x04, 0x40, 0x01, 0x11, 0x88, 0x80,
   0x00, 0x00, 0x04, 0x41, 0x01, 0x00, 0x00, 0x80, 0x04, 0x01, 0x20, 0x40,
   0x08, 0x04, 0x20, 0x10, 0x00, 0x00, 0x00, 0x20, 0x10, 0x00, 0x00, 0x08,
   0x10, 0x00, 0x00, 0x10, 0x00, 0x00, 0x00, 0x00, 0x00, 0x00, 0x00, 0x00,
   0x00, 0x00, 0x00, 0x00, 0x00, 0x00, 0x00, 0x00, 0x00, 0x00, 0x00, 0x00,
   0x00, 0x00, 0x00, 0x00, 0x00, 0x00, 0x00, 0x00 };
